<?xml version="1.0" standalone="no"?>
<!DOCTYPE svg PUBLIC "-//W3C//DTD SVG 20010904//EN"
 "http://www.w3.org/TR/2001/REC-SVG-20010904/DTD/svg10.dtd">
<svg version="1.0" xmlns="http://www.w3.org/2000/svg"
 width="517.000000pt" height="482.000000pt" viewBox="0 0 517.000000 482.000000"
 preserveAspectRatio="xMidYMid meet">
<metadata>
Created by potrace 1.16, written by Peter Selinger 2001-2019
</metadata>
<g transform="translate(0.000000,482.000000) scale(0.100000,-0.100000)"
fill="#000000" stroke="none">
<path d="M2285 3771 c-22 -10 -56 -21 -75 -25 -75 -13 -360 -182 -463 -273
-21 -19 -69 -53 -106 -77 -68 -44 -69 -45 -145 -189 -42 -80 -76 -155 -76
-168 0 -35 -34 -86 -70 -104 l-30 -16 0 -127 c-1 -156 -12 -213 -61 -317 -22
-45 -27 -184 -9 -231 6 -15 14 -64 17 -107 5 -59 15 -102 40 -160 18 -44 36
-107 40 -140 4 -37 15 -73 28 -93 24 -35 40 -73 50 -118 3 -16 34 -59 68 -95
136 -146 272 -281 284 -281 7 0 32 -9 55 -19 24 -11 86 -36 138 -56 52 -20
118 -50 146 -66 44 -25 53 -27 69 -15 12 9 30 11 59 5 22 -4 45 -5 50 -2 5 4
7 2 5 -3 -3 -5 10 -24 28 -42 30 -30 34 -32 40 -15 15 41 63 65 121 62 26 -2
51 -8 55 -13 6 -8 10 -7 14 2 7 18 24 15 17 -3 -14 -35 14 -45 123 -45 89 0
104 2 99 15 -9 25 4 45 30 45 13 0 24 -5 24 -11 0 -6 -8 -8 -19 -4 -11 3 -22
1 -26 -5 -4 -7 2 -14 14 -17 12 -3 21 -9 21 -14 0 -14 206 -10 302 6 94 15
152 45 208 109 22 24 27 37 23 66 -9 68 52 140 120 140 23 0 27 4 27 28 0 37
33 88 70 107 16 8 30 23 30 33 0 33 40 84 80 100 22 10 40 22 40 28 0 6 11 27
24 47 21 31 23 37 10 48 -24 19 -44 65 -44 97 0 17 -6 32 -15 36 -8 3 -15 12
-15 21 0 8 -4 15 -9 15 -5 0 -7 -9 -4 -20 3 -11 1 -20 -5 -20 -5 0 -12 13 -14
29 -4 29 -4 29 49 30 29 0 66 7 82 16 41 21 87 19 137 -5 40 -20 44 -20 85 -4
94 35 158 25 195 -32 l17 -25 18 30 c27 44 73 65 130 58 44 -5 48 -4 53 19 4
13 2 33 -4 44 -16 29 -12 72 10 108 11 18 20 47 20 66 0 19 11 49 25 71 15 20
25 38 23 39 -47 29 -60 41 -73 66 -12 24 -22 30 -46 30 -17 0 -48 9 -68 19
-20 11 -49 22 -65 26 -17 3 -44 22 -62 40 -30 32 -35 34 -81 28 -58 -6 -104
13 -130 55 -9 15 -30 47 -45 72 -23 35 -29 53 -25 85 3 35 -3 49 -51 120 -30
44 -68 95 -84 113 -15 18 -44 65 -64 105 -77 153 -196 310 -269 352 -22 13
-76 51 -119 84 -138 104 -357 196 -531 224 -208 33 -248 37 -358 36 -84 0
-122 -5 -152 -18z m495 -96 c336 -51 633 -226 836 -493 110 -146 244 -453 232
-533 -3 -20 -43 -39 -314 -147 -234 -94 -311 -129 -310 -141 1 -12 -8 -16 -34
-16 -50 0 -53 -29 -4 -52 45 -22 59 -42 51 -75 -10 -38 -55 -53 -101 -34 -48
20 -38 37 18 30 68 -10 75 35 9 57 -20 6 -39 21 -45 35 -20 44 -31 20 -29 -59
2 -72 1 -77 -18 -77 -19 0 -21 6 -21 69 l0 69 -147 -59 c-81 -32 -150 -56
-153 -52 -17 19 -209 518 -202 524 4 3 89 35 190 70 100 35 182 67 182 71 0
12 -83 57 -146 79 -32 11 -97 23 -144 26 l-85 5 -580 -172 c-319 -95 -584
-176 -589 -181 -5 -5 -8 -11 -5 -13 3 -3 81 -21 174 -41 94 -20 178 -38 188
-41 14 -4 17 -17 17 -69 0 -35 -4 -67 -10 -70 -5 -3 -10 -19 -10 -35 0 -22 6
-30 31 -39 l30 -10 -6 87 c-8 126 -7 126 129 97 59 -13 110 -26 114 -29 3 -4
6 -21 7 -39 4 -115 5 -121 17 -109 7 7 26 12 42 12 l31 -1 -32 -29 c-18 -16
-33 -33 -33 -37 0 -4 14 -22 32 -40 24 -25 28 -33 15 -33 -22 0 -22 -15 1 -38
10 -10 17 -23 14 -30 -7 -22 150 -167 216 -200 178 -88 403 -77 557 27 25 17
54 31 63 31 35 -1 736 -187 739 -197 7 -21 -105 -172 -197 -264 -114 -115
-259 -213 -402 -275 -57 -24 -109 -44 -117 -44 -8 0 -11 -6 -7 -16 5 -14 1
-15 -26 -10 -18 3 -65 -1 -103 -9 -102 -22 -285 -29 -390 -16 -156 19 -180 23
-200 34 -13 7 -20 7 -23 -2 -6 -18 -42 -13 -42 7 0 12 -21 25 -75 46 -326 124
-608 421 -730 769 -15 42 -33 77 -39 77 -7 0 -11 21 -12 53 0 28 -6 106 -12
172 -39 386 110 777 398 1048 283 266 679 390 1060 332z m1248 -1187 c8 -8 12
-62 12 -177 0 -157 -1 -166 -25 -207 -28 -48 -91 -84 -145 -84 -38 0 -119 36
-127 56 -3 8 -9 11 -14 8 -5 -3 -9 2 -9 10 0 11 -8 15 -30 12 -16 -2 -27 1
-24 6 3 5 13 7 21 6 14 -3 16 14 14 130 -2 128 -2 132 18 132 17 0 21 -6 21
-30 0 -35 4 -36 36 -11 73 57 185 13 127 -51 -9 -10 -26 -18 -38 -18 -13 0
-33 -9 -46 -19 l-24 -19 24 -26 c24 -26 24 -26 3 -26 -25 0 -29 -22 -7 -40 8
-6 32 -14 53 -17 34 -5 42 -2 60 22 20 26 22 39 22 179 0 159 4 176 45 176 12
0 26 -5 33 -12z m-459 -128 c10 0 39 -14 64 -31 42 -28 46 -33 36 -52 -6 -12
-21 -32 -33 -45 l-21 -24 26 7 c17 4 30 2 34 -6 12 -18 -25 -41 -60 -36 -19 3
-39 -3 -56 -16 -26 -19 -28 -19 -58 -1 -36 21 -52 12 -26 -16 15 -17 31 -20
95 -20 l78 0 -8 -35 c-13 -60 -25 -67 -99 -62 -89 6 -135 24 -150 59 -7 15
-17 26 -22 22 -5 -3 -9 10 -9 29 0 30 -4 35 -30 41 -33 6 -50 36 -50 87 0 22
-5 29 -20 29 -11 0 -20 5 -20 10 0 6 9 10 20 10 13 0 20 7 20 20 0 13 7 20 20
20 13 0 20 -7 20 -20 0 -13 7 -20 20 -20 11 0 20 -4 20 -10 0 -5 -9 -10 -20
-10 -17 0 -20 -7 -20 -40 0 -33 4 -40 19 -40 13 0 21 10 25 34 12 64 117 137
174 120 8 -2 21 -4 31 -4z m789 -18 c15 -19 16 -161 2 -214 -13 -45 -68 -95
-116 -104 -58 -11 -122 21 -151 75 -19 37 -23 59 -23 133 0 103 9 128 48 128
45 0 52 -15 52 -120 0 -104 7 -120 50 -120 43 0 50 16 50 121 0 88 2 99 21
113 23 16 47 12 67 -12z"/>
<path d="M1749 2177 l-36 -10 -12 -219 c-10 -172 -10 -222 -1 -233 16 -19 84
-19 100 0 16 19 3 355 -14 355 -6 0 -5 4 3 9 12 8 12 12 2 25 -9 11 -10 16 -2
16 6 0 11 16 11 35 0 19 -3 34 -7 34 -5 -1 -24 -6 -44 -12z"/>
</g>
</svg>
