
<svg version="1.0" xmlns="http://www.w3.org/2000/svg"
 width="64.000000pt" height="64.000000pt" viewBox="0 0 64.000000 64.000000"
 preserveAspectRatio="xMidYMid meet">
<g transform="translate(0.000000,64.000000) scale(0.100000,-0.100000)"
fill="#000000" stroke="none">
<path d="M190 599 c-60 -27 -117 -83 -146 -144 -19 -39 -24 -67 -24 -125 0
-88 22 -145 78 -204 57 -59 122 -86 212 -86 90 0 155 27 212 86 56 59 78 116
78 204 0 58 -5 86 -24 125 -29 61 -86 117 -146 144 -62 28 -178 28 -240 0z
m226 -28 c42 -19 105 -75 124 -111 10 -20 8 -20 -133 -20 -130 0 -147 -2 -170
-20 -14 -11 -29 -30 -32 -42 -6 -17 -14 -9 -51 53 l-43 74 27 23 c72 63 194
81 278 43z m-257 -211 c34 -61 73 -117 84 -125 12 -8 39 -15 60 -15 l39 0 -37
-67 c-21 -38 -41 -72 -45 -76 -13 -14 -94 27 -135 68 -52 53 -75 107 -75 182
0 57 23 143 39 143 3 0 35 -50 70 -110z m405 44 c13 -34 5 -140 -13 -180 -38
-83 -135 -153 -213 -154 -21 0 -38 3 -38 6 0 3 27 52 60 108 65 111 77 168 44
214 l-15 22 84 0 c68 0 86 -3 91 -16z m-197 -16 c51 -48 15 -138 -56 -138 -47
0 -81 32 -81 79 0 72 84 109 137 59z"/>
</g>
</svg>
