<svg version="1.0" xmlns="http://www.w3.org/2000/svg"
 width="64.000000pt" height="64.000000pt" viewBox="0 0 64.000000 64.000000"
 preserveAspectRatio="xMidYMid meet">

<g transform="translate(0.000000,64.000000) scale(0.100000,-0.100000)"
fill="#000000" stroke="none">
<path d="M190 599 c-60 -27 -117 -83 -146 -144 -19 -39 -24 -67 -24 -125 0
-88 22 -145 78 -204 57 -59 122 -86 212 -86 90 0 155 27 212 86 56 59 78 116
78 204 0 58 -5 86 -24 125 -29 61 -86 117 -146 144 -62 28 -178 28 -240 0z
m238 -35 c55 -27 103 -79 127 -138 21 -50 19 -152 -4 -202 -24 -52 -83 -111
-135 -135 -55 -25 -157 -25 -212 0 -52 24 -111 83 -135 135 -23 50 -25 152 -4
202 60 143 226 206 363 138z"/>
<path d="M191 426 c-8 -9 -11 -46 -9 -102 3 -86 4 -89 30 -102 23 -11 33 -11
55 0 27 13 28 16 31 102 3 102 -4 116 -58 116 -21 0 -43 -6 -49 -14z"/>
</g>
</svg>
